<?xml version="1.0" encoding="iso-8859-1"?>
<!-- Generator: Adobe Illustrator 19.0.0, SVG Export Plug-In . SVG Version: 6.00 Build 0)  -->
<svg version="1.1" id="Capa_1" xmlns="http://www.w3.org/2000/svg" xmlns:xlink="http://www.w3.org/1999/xlink" x="0px" y="0px"
	 viewBox="0 0 512 512" style="enable-background:new 0 0 512 512;" xml:space="preserve">
<g transform="translate(1 1)">
	<g>
		<path d="M436.405,44.577c-5.646-3.289-15.224-7.809-28.132-12.224c-51.035-17.455-107.519-17.455-163.188,11.769
			c-44.074,23.126-88.729,23.126-129.552,9.17c-3.709-1.268-7.007-2.521-9.866-3.696V20.333C105.667,8.551,96.115-1,84.333-1
			C72.551-1,63,8.551,63,20.333v42.677v213.717v212.939C63,501.449,72.551,511,84.333,511c11.782,0,21.333-9.551,21.333-21.333
			V308.681c49.994,16.121,105.004,15.399,159.246-13.062c44.077-23.128,88.732-23.128,129.556-9.172
			c10.056,3.438,17.121,6.77,20.464,8.717c14.222,8.281,32.068-1.978,32.068-18.436V63.011
			C447,55.419,442.965,48.399,436.405,44.577z M404.333,244.767c-49.993-16.12-105.005-15.39-159.246,13.071
			c-44.077,23.128-88.732,23.128-129.556,9.172c-3.707-1.267-7.008-2.52-9.866-3.695V94.972
			c49.993,16.12,105.005,15.39,159.246-13.071c44.079-23.139,88.732-23.139,129.553-9.178c3.708,1.268,7.01,2.522,9.868,3.698
			V244.767z"/>
	</g>
</g>
<g>
</g>
<g>
</g>
<g>
</g>
<g>
</g>
<g>
</g>
<g>
</g>
<g>
</g>
<g>
</g>
<g>
</g>
<g>
</g>
<g>
</g>
<g>
</g>
<g>
</g>
<g>
</g>
<g>
</g>
</svg>
